# xmcd CD database file
#
# Track frame offsets:
#	150
#	18715
#	37970
#	58705
#	86397
#	111085
#	131745
#	148420
#	172090
#	189190
#	217682
#
# Disc length: 3104 seconds
#
# Revision: 0
# Processed by: cddbd v1.5PL3 Copyright (c) Steve Scherf et al.
# Submitted via: CDex 1.50Beta7
#
DISCID=980c1e0b
DTITLE=是方博邦 - MR.HEART
DYEAR=1991
DGENRE=Jazz
TTITLE0=HIGH SPIRITS WOMAN
TTITLE1=SPY FOR WEST
TTITLE2=MS.HEART
TTITLE3=MY QUEEN
TTITLE4=LAST BLUES
TTITLE5=FLAME
TTITLE6=HUSH HUSH
TTITLE7=MARIANAS
TTITLE8=GO GO PATROL!
TTITLE9=IT'S NOT STYLE BUT THE HEART
TTITLE10=LITTLE ROMANCE
EXTD=YEAR: 1991
EXTT0=
EXTT1=
EXTT2=
EXTT3=
EXTT4=
EXTT5=
EXTT6=
EXTT7=
EXTT8=
EXTT9=
EXTT10=
PLAYORDER=
